<svg xmlns="http://www.w3.org/2000/svg" xmlns:xlink="http://www.w3.org/1999/xlink" width="50" height="50" viewBox="0 0 50 50">
  <defs>
    <linearGradient id="linear-gradient" x1="0.578" y1="1" x2="0.578" gradientUnits="objectBoundingBox">
      <stop offset="0" stop-color="#472dc2"/>
      <stop offset="1" stop-color="#a592ef"/>
    </linearGradient>
    <clipPath id="clip-fashion">
      <rect width="50" height="50"/>
    </clipPath>
  </defs>
  <g id="fashion" clip-path="url(#clip-fashion)">
    <rect width="50" height="50" fill="#fff"/>
    <g id="noun_fashion_1362380" transform="translate(-19.09 -19.266)">
      <path id="Union_84" data-name="Union 84" d="M-5237.87,363.483h12.133l-.946,1.237-.907,1.182h-7.3A3.052,3.052,0,0,1-5237.87,363.483Zm28.155,2.419,2.927-2.427h4.166a4.379,4.379,0,0,1-3.915,2.427Zm4.392-3.673,2.822-2.361a4.059,4.059,0,0,1,.308,1.173V362a1.9,1.9,0,0,1-.033.226Zm-32.587,0V350.987a.738.738,0,0,1,.228-.526.75.75,0,0,1,.591-.191.759.759,0,0,1,.533.319,6.523,6.523,0,0,0,4.179,2.787,6.53,6.53,0,0,0,4.92-1.007,6.7,6.7,0,0,0,1.334-1.173,2.468,2.468,0,0,1,1.876-.931h.1a2.339,2.339,0,0,1,.81.162l13.1,5.007-.154.1c-.454.283-.9.549-1.334.808l-9.487-3.527a.626.626,0,0,0-.8.368.626.626,0,0,0,.368.806l8.541,3.154c-3.834,2.063-7.078,3.066-9.707,2.976a.721.721,0,0,0-.542.276l-1.415,1.835Zm3.147-2.3a.624.624,0,0,0,.623.623h9.365a.623.623,0,0,0,.623-.623.622.622,0,0,0-.623-.623h-9.365A.623.623,0,0,0-5234.764,359.932Z" transform="translate(5258.965 -303.58)" fill="#fc0"/>
      <path id="Union_83" data-name="Union 83" d="M-5198.982,394.718l-.033-8.445a5.392,5.392,0,0,0,0-1.05.647.647,0,0,0,0-.1v-2.678a.622.622,0,0,0-.36-.568.625.625,0,0,0-.667.091l-.363.3-.372.315-4.715,3.955-1.359,1.14-5.662,4.74a9.957,9.957,0,0,1-6.349,2.3h-8.549l-.056-.113,2.668-3.511,1-1.334,3.235-4.221c3.058.008,6.834-1.262,11.2-3.8.906-.526,1.86-1.124,2.822-1.763a77.684,77.684,0,0,0,6.971-5.233c1.375-1.149,2.37-2.055,2.839-2.491,1.18.565,4.925,2.579,4.925,5.718l-1.949,16.75Zm-21.936-21.3a3.527,3.527,0,0,0-1.286-.243h-.105a3.7,3.7,0,0,0-2.83,1.375l-.082.089v-10.7a.624.624,0,0,0-.36-.569.621.621,0,0,0-.667.092l-5.42,4.585-6.244-7.384,12.295-10.4h7.707a5.226,5.226,0,0,0,4.994,3.69,5.226,5.226,0,0,0,5-3.69h7.716l12.292,10.4-6.243,7.384-5.42-4.585a.621.621,0,0,0-.667-.092.625.625,0,0,0-.36.569v10.021l-1.052.857-.518.421q-.866.672-1.673,1.295l-.195.145c-.485.364-.97.72-1.455,1.06l-.535.364-.946.647Z" transform="translate(5257 -327.746)" fill="url(#linear-gradient)"/>
    </g>
  </g>
</svg>
