<svg xmlns="http://www.w3.org/2000/svg" xmlns:xlink="http://www.w3.org/1999/xlink" width="50" height="50" viewBox="0 0 50 50">
  <defs>
    <linearGradient id="linear-gradient" x1="0.578" y1="1" x2="0.578" gradientUnits="objectBoundingBox">
      <stop offset="0" stop-color="#472dc2"/>
      <stop offset="1" stop-color="#a592ef"/>
    </linearGradient>
    <clipPath id="clip-healthcare">
      <rect width="50" height="50"/>
    </clipPath>
  </defs>
  <g id="healthcare" clip-path="url(#clip-healthcare)">
    <rect width="50" height="50" fill="#fff"/>
    <g id="noun_Healthcare_447450" transform="translate(70.142 -2.84)">
      <path id="Path_548" data-name="Path 548" d="M42.974,8.2a7.568,7.568,0,0,0-5.5,2.312l-.462.411-.411-.411A7.813,7.813,0,0,0,25.56,10.46a7.691,7.691,0,0,0-2.26,5.5,7.568,7.568,0,0,0,2.312,5.5L36.245,32.087a1.212,1.212,0,0,0,.822.36,1.022,1.022,0,0,0,.822-.36L48.471,21.5a7.751,7.751,0,0,0,.051-10.993A7.95,7.95,0,0,0,42.974,8.2ZM31.005,13.44a2.521,2.521,0,0,0-2.517,2.517,1.13,1.13,0,1,1-2.26,0,4.823,4.823,0,0,1,4.829-4.829,1.14,1.14,0,0,1,1.13,1.13A1.23,1.23,0,0,1,31.005,13.44Z" transform="translate(-81.999)" fill="#fc0"/>
      <path id="Path_549" data-name="Path 549" d="M2.777,42.413,1.493,29.879a1.961,1.961,0,0,1,.616-1.644,1.5,1.5,0,0,1,2.158.154,7.31,7.31,0,0,1,.771,2.723,52.762,52.762,0,0,1,.616,5.651v.36a5.764,5.764,0,0,0,.514,2.055A60.991,60.991,0,0,0,11.2,47.4l.205.257a.49.49,0,0,0,.616.154.52.52,0,0,0,.205-.668L7.811,39.9a1.845,1.845,0,0,1,.668-2.466A1.791,1.791,0,0,1,10.945,38l4.623,5.959a7.3,7.3,0,0,0,1.284,1.233,11.353,11.353,0,0,1,5.086,7.6,6.83,6.83,0,0,1,.051.873h0a7.278,7.278,0,0,1-.1,1.438l-.257,4.983a.68.68,0,0,1-.668.668L13.153,60.7a.68.68,0,0,1-.668-.668l-.154-4.11-7.4-8.99A7.33,7.33,0,0,1,2.88,42.875ZM7.349,30.547c.36,1.284.771,3.7.976,5.034a.05.05,0,0,1-.051.051c-.257.1-.462.205-.719.308a4.443,4.443,0,0,0-.514.36v-.411a50.141,50.141,0,0,0-.616-5.342,7.077,7.077,0,0,0-.308-1.336A1.791,1.791,0,0,1,7.349,30.547Zm2.466,1.8c.205.771.771,2.466.873,3.288a2.764,2.764,0,0,0-1.13-.205v-.154l-.051-.668c-.1-.925-.668-2.62-.873-3.6A1.817,1.817,0,0,1,9.815,32.345Zm34.52,5.086A1.857,1.857,0,0,1,45,39.9l-4.418,7.243a.453.453,0,0,0,.205.668.476.476,0,0,0,.616-.154l.205-.257a60.992,60.992,0,0,0,5.034-8.219,5.764,5.764,0,0,0,.514-2.055v-.36a42.227,42.227,0,0,1,.616-5.651,8.429,8.429,0,0,1,.771-2.723,1.5,1.5,0,0,1,2.158-.154,1.821,1.821,0,0,1,.616,1.644L50.037,42.413l-.051.462a7.678,7.678,0,0,1-2.055,4.058l-7.449,8.938-.154,4.11a.68.68,0,0,1-.668.668l-7.808.051a.68.68,0,0,1-.668-.668l-.257-4.983c-.051-.514-.1-1.027-.1-1.438h0a6.83,6.83,0,0,1,.051-.873,11.564,11.564,0,0,1,5.086-7.6A9.781,9.781,0,0,0,37.246,43.9l4.623-5.959A1.768,1.768,0,0,1,44.335,37.43Zm.873-1.49a1.8,1.8,0,0,0-.719-.308.05.05,0,0,0-.051-.051,43.487,43.487,0,0,1,.976-5.034,1.922,1.922,0,0,1,1.181-1.336,12.52,12.52,0,0,0-.308,1.336,48.664,48.664,0,0,0-.616,5.342V36.3A1.805,1.805,0,0,0,45.208,35.941Zm-2-.719v.154a4.369,4.369,0,0,0-1.13.205c.1-.822.668-2.517.873-3.288a1.669,1.669,0,0,1,1.181-1.284c-.205.925-.719,2.671-.873,3.6Z" transform="translate(-71.485 -11.611)" fill="url(#linear-gradient)"/>
    </g>
  </g>
</svg>
