<svg xmlns="http://www.w3.org/2000/svg" xmlns:xlink="http://www.w3.org/1999/xlink" width="50" height="50" viewBox="0 0 50 50">
  <defs>
    <linearGradient id="linear-gradient" x1="0.578" y1="1" x2="0.578" gradientUnits="objectBoundingBox">
      <stop offset="0" stop-color="#472dc2"/>
      <stop offset="1" stop-color="#a592ef"/>
    </linearGradient>
    <clipPath id="clip-agriculture">
      <rect width="50" height="50"/>
    </clipPath>
  </defs>
  <g id="agriculture" clip-path="url(#clip-agriculture)">
    <rect width="50" height="50" fill="#fff"/>
    <g id="icon" transform="translate(0 -96.497)">
      <g id="Group_243" data-name="Group 243" transform="translate(0 99.497)">
        <path id="Union_76" data-name="Union 76" d="M-5155.312,439.2a7.077,7.077,0,0,1,1.933-4.861h-7.889v-2.307a5.042,5.042,0,0,0-1.587-3.657,5.03,5.03,0,0,0-1.463-3.7l-1.777-1.777a5.042,5.042,0,0,0-3.69-1.471,5,5,0,0,0-3.668-1.58h-2.518a4.994,4.994,0,0,0-3.666,1.58,5.063,5.063,0,0,0-3.689,1.467l-.741.741V407.4a4.407,4.407,0,0,1,4.4-4.4h12.265c2.425,0,3.987,1.847,5.031,4.4l5.66,13.386h12.734v-7.923a4.106,4.106,0,0,1,.737-3.17,4.625,4.625,0,0,1,3.849-1.532,1.256,1.256,0,0,1,1.258,1.256,1.257,1.257,0,0,1-1.258,1.258,2.521,2.521,0,0,0-1.869.568,1.7,1.7,0,0,0-.23,1.226l.031.275v8.038h1.939a2.521,2.521,0,0,1,2.517,2.522l-2.514,8.524c0,1.3-2.113,2.372-3.516,2.486a7.1,7.1,0,0,1,1.954,4.886,7.128,7.128,0,0,1-7.118,7.118A7.127,7.127,0,0,1-5155.312,439.2Zm3.771,0a3.347,3.347,0,0,0,3.344,3.34,3.344,3.344,0,0,0,3.339-3.34,3.344,3.344,0,0,0-3.339-3.343A3.348,3.348,0,0,0-5151.542,439.2Zm-28.7-30.375v8.9l18.135.034-3.75-8.934c-.69-1.7-1.73-2.919-3.336-2.919h-8.129A2.921,2.921,0,0,0-5180.245,408.827Zm4.1,37.493a4.445,4.445,0,0,1-3.265-1.41,4.446,4.446,0,0,1-3.288-1.311l-1.584-1.584a4.464,4.464,0,0,1-1.313-3.312,4.505,4.505,0,0,1-1.4-3.245V433.22a4.489,4.489,0,0,1,1.4-3.24,4.457,4.457,0,0,1,1.313-3.317l1.587-1.583a4.5,4.5,0,0,1,3.29-1.311,4.446,4.446,0,0,1,3.265-1.407h2.239a4.452,4.452,0,0,1,3.268,1.407,4.49,4.49,0,0,1,3.29,1.311l1.583,1.583a4.5,4.5,0,0,1,1.3,3.3,4.5,4.5,0,0,1,1.414,3.254v2.239a4.5,4.5,0,0,1-1.414,3.258,4.492,4.492,0,0,1-1.3,3.3l-1.583,1.584a4.429,4.429,0,0,1-3.289,1.311,4.453,4.453,0,0,1-3.269,1.41Zm-6.374-11.979a7.505,7.505,0,0,0,7.494,7.494,7.505,7.505,0,0,0,7.5-7.494,7.506,7.506,0,0,0-7.5-7.5A7.505,7.505,0,0,0-5182.522,434.342Z" transform="translate(5187 -403)" fill="url(#linear-gradient)"/>
        <circle id="Ellipse_19" data-name="Ellipse 19" cx="4.131" cy="4.131" r="4.131" transform="translate(7.841 27.21)" fill="#fc0"/>
      </g>
    </g>
  </g>
</svg>
