<svg xmlns="http://www.w3.org/2000/svg" xmlns:xlink="http://www.w3.org/1999/xlink" width="50" height="50" viewBox="0 0 50 50">
  <defs>
    <linearGradient id="linear-gradient" x1="0.578" y1="1" x2="0.578" gradientUnits="objectBoundingBox">
      <stop offset="0" stop-color="#472dc2"/>
      <stop offset="1" stop-color="#a592ef"/>
    </linearGradient>
    <clipPath id="clip-education">
      <rect width="50" height="50"/>
    </clipPath>
  </defs>
  <g id="education" clip-path="url(#clip-education)">
    <rect width="50" height="50" fill="#fff"/>
    <g id="college-graduation" transform="translate(0 -32.462)">
      <g id="Layer_5_59_" transform="translate(0 36.648)">
        <g id="Group_246" data-name="Group 246" transform="translate(0 0)">
          <path id="Union_82" data-name="Union 82" d="M-5181.049,357.889v-8.9c0-1.821,1.311-1.017,1.311-1.017l14.529,8.91a6.2,6.2,0,0,0,3.209.846,6.217,6.217,0,0,0,3.21-.846l14.907-9.143s.932-.713.932.747v9.4c0,4.687-8.528,9.74-19.05,9.74S-5181.049,362.576-5181.049,357.889Zm17.019-3.429-22.132-13.574a1.344,1.344,0,0,1,0-2.49l22.132-11.067a4.27,4.27,0,0,1,4.061,0l22.132,11.067a1.344,1.344,0,0,1,0,2.49l-22.132,13.574a3.961,3.961,0,0,1-2.03.514A3.961,3.961,0,0,1-5164.03,354.46Z" transform="translate(5187 -326.815)" fill="url(#linear-gradient)"/>
          <path id="Path_541" data-name="Path 541" d="M359.474,201.191V186.2s.01-.71-.411-.476a12.248,12.248,0,0,0-1.458.9,1.258,1.258,0,0,0-.261.95v13.613a.4.4,0,0,1-.245.332,2.59,2.59,0,1,0,2.612-.005A.386.386,0,0,1,359.474,201.191Z" transform="translate(-311.227 -166.999)" fill="#fc0"/>
        </g>
      </g>
    </g>
  </g>
</svg>
