<svg xmlns="http://www.w3.org/2000/svg" xmlns:xlink="http://www.w3.org/1999/xlink" width="50" height="50" viewBox="0 0 50 50">
  <defs>
    <linearGradient id="linear-gradient" x1="0.556" y1="1" x2="0.539" gradientUnits="objectBoundingBox">
      <stop offset="0" stop-color="#472dc2"/>
      <stop offset="1" stop-color="#a491ee"/>
      <stop offset="1" stop-color="#a592ef"/>
    </linearGradient>
    <clipPath id="clip-jewellery">
      <rect width="50" height="50"/>
    </clipPath>
  </defs>
  <g id="jewellery" clip-path="url(#clip-jewellery)">
    <rect width="50" height="50" fill="#fff"/>
    <g id="necklace" transform="translate(-13.999 0)">
      <path id="Path_186" data-name="Path 186" d="M144.937,281.56a1.347,1.347,0,1,1-1.347,1.348A1.349,1.349,0,0,1,144.937,281.56Z" transform="translate(-115.325 -254.494)" fill="#fc0"/>
      <path id="Path_187" data-name="Path 187" d="M228.522,322.19l2.922,5.087-2.922,2.922-2.922-2.922Z" transform="translate(-189.452 -291.218)" fill="#fc0"/>
      <path id="Path_188" data-name="Path 188" d="M342.317,281.56a1.347,1.347,0,1,1-1.347,1.348A1.349,1.349,0,0,1,342.317,281.56Z" transform="translate(-293.731 -254.494)" fill="#fc0"/>
      <path id="Union_21" data-name="Union 21" d="M6.607,39.048C2.426,32.741.08,24.367,0,15.464a1.748,1.748,0,0,1,.146-.71c.22-.5.49-.68,1.209-1.156A41.963,41.963,0,0,0,5.27,11v.6A25.314,25.314,0,0,0,9.821,26.311l.068.094a4.229,4.229,0,0,0,6.136,5.482l.138.074a15.562,15.562,0,0,0,2.424,1.028L17.31,35.21a2,2,0,0,0,.32,2.407l4.029,4.031a2,2,0,0,0,2.824,0l4.029-4.031a2,2,0,0,0,.32-2.407L27.563,33a15.523,15.523,0,0,0,2.611-1.112,4.23,4.23,0,0,0,6.145-5.466,24.635,24.635,0,0,0,4.542-13.787h.013V11.221q1.816,1.235,3.98,2.469A2.208,2.208,0,0,1,46,14.754a1.746,1.746,0,0,1,.147.712c-.079,8.9-2.424,17.277-6.607,23.582-4.35,6.558-10.2,10.169-16.464,10.169S10.957,45.606,6.607,39.048ZM24.676,27.974a1.85,1.85,0,0,0-3.208,0l-1.4,2.444a12.385,12.385,0,0,1-2.364-.911,4.232,4.232,0,0,0-5.643-5.03A22.458,22.458,0,0,1,8.154,11.6V8.65C10.691,6.371,12.8,3.8,13.139,1.518A1.814,1.814,0,0,1,14.95,0H30.508a1.811,1.811,0,0,1,1.811,1.518c.332,2.2,2.291,4.825,5.67,7.568v2.7a21.978,21.978,0,0,1-3.832,12.7,4.187,4.187,0,0,0-1.572-.3A4.239,4.239,0,0,0,28.5,29.508a12.4,12.4,0,0,1-2.414.919Z" transform="translate(15.999 0)" fill="url(#linear-gradient)"/>
    </g>
  </g>
</svg>
