<svg xmlns="http://www.w3.org/2000/svg" xmlns:xlink="http://www.w3.org/1999/xlink" width="50" height="50" viewBox="0 0 50 50">
  <defs>
    <linearGradient id="linear-gradient" x1="0.556" y1="1" x2="0.539" gradientUnits="objectBoundingBox">
      <stop offset="0" stop-color="#472dc2"/>
      <stop offset="1" stop-color="#a491ee"/>
      <stop offset="1" stop-color="#a592ef"/>
    </linearGradient>
    <clipPath id="clip-manufacturing">
      <rect width="50" height="50"/>
    </clipPath>
  </defs>
  <g id="manufacturing" clip-path="url(#clip-manufacturing)">
    <rect width="50" height="50" fill="#fff"/>
    <g id="noun_Manufacturing_worker_281791" data-name="noun_Manufacturing worker_281791" transform="translate(-6 -13.55)">
      <g id="Group_248" data-name="Group 248" transform="translate(5.497 15.559)">
        <path id="Union_85" data-name="Union 85" d="M19.763,30.254V24.232H4.657v6.022H0v-4.07a9.821,9.821,0,0,1,5.225-8.792v5.98H7.836V16.552c.229-.035.45-.066.693-.08a5.563,5.563,0,0,0,7.2,0,6.893,6.893,0,0,1,.852.1v6.805h2.726V17.48a9.736,9.736,0,0,1,4.884,8.7v4.07ZM6.967,8.868H6.358a.686.686,0,0,1-.677-.683V6.924a.761.761,0,0,1,.679-.759h.3a7.532,7.532,0,0,1,2.3-4.859l1.457,4.64L9.912.636a4.772,4.772,0,0,1,1.21-.49,3.2,3.2,0,0,1,1.44-.11,4.538,4.538,0,0,1,1.947.646l-.5,5.246,1.434-4.555a7.779,7.779,0,0,1,2.222,4.789h.141c.354,0,.592.375.592.759V8.185a.621.621,0,0,1-.592.683H17.2c-.328,3.81-2.494,6.862-5.117,6.862S7.293,12.678,6.967,8.868Zm5.114,5.469c1.933,0,3.536-2.4,3.826-5.469H8.257C8.549,11.94,10.15,14.337,12.081,14.337Z" transform="translate(26.311)" fill="#fc0"/>
        <rect id="Rectangle_71" data-name="Rectangle 71" width="1.274" height="1.377" transform="translate(31.829 25.662)" fill="#7c66db"/>
        <rect id="Rectangle_72" data-name="Rectangle 72" width="1.274" height="1.377" transform="translate(42.439 25.662)" fill="#7c66db"/>
        <path id="Path_554" data-name="Path 554" d="M30.323,50.51V48.6c0-.34-.178-.619-.491-.619H29.58v-.864a.63.63,0,0,0-.6-.628h-.462V40.979H26.5v5.512h-.5a.694.694,0,0,0-.668.628v.864H25.06a.6.6,0,0,0-.572.619V50.51H19.713v-6a3.118,3.118,0,0,0-.931-2.252L22.912,36a1.042,1.042,0,0,0,.082-.979L25.5,34.46l.47.532a1.018,1.018,0,0,0-.211.621v4.6c0,.085.071.19.149.19h1.228c.079,0,.108-.106.108-.19V38.453h.424v1.762c0,.085.146.19.224.19h1.228c.079,0,.139-.106.139-.19v-4.6a.937.937,0,0,0-.879-.97l-2.2-2.473-.195-1.019a.442.442,0,0,0-.52-.37l-6.021,1.351-.82-.634a.85.85,0,0,0-1.253.2l-6.447,9.744H9.277a2.99,2.99,0,0,0-2.826,3.072v6H5.5V63.945H56V50.51ZM27.557,35.443a.983.983,0,1,1-.906.979A.945.945,0,0,1,27.557,35.443ZM24.447,31.6a1.09,1.09,0,1,1-1,1.087A1.047,1.047,0,0,1,24.447,31.6ZM13.1,48.449a2.441,2.441,0,0,1,0-4.867,2.441,2.441,0,0,1,0,4.867Zm4.5-13.11a1.454,1.454,0,1,1,1.45,1.569A1.513,1.513,0,0,1,17.6,35.339Z" transform="translate(-5.497 -19.222)" fill="url(#linear-gradient)"/>
      </g>
    </g>
  </g>
</svg>
