<svg xmlns="http://www.w3.org/2000/svg" xmlns:xlink="http://www.w3.org/1999/xlink" width="50" height="50" viewBox="0 0 50 50">
  <defs>
    <linearGradient id="linear-gradient" x1="0.556" y1="1" x2="0.539" gradientUnits="objectBoundingBox">
      <stop offset="0" stop-color="#472dc2"/>
      <stop offset="1" stop-color="#a491ee"/>
      <stop offset="1" stop-color="#a592ef"/>
    </linearGradient>
    <clipPath id="clip-media-house">
      <rect width="50" height="50"/>
    </clipPath>
  </defs>
  <g id="media-house" clip-path="url(#clip-media-house)">
    <rect width="50" height="50" fill="#fff"/>
    <g id="noun_Media_1771085" transform="translate(-10 -14.32)">
      <g id="Group_249" data-name="Group 249" transform="translate(10 21.32)">
        <path id="Union_86" data-name="Union 86" d="M-5349.049,284.849v-2.423H-5347v2.423Zm-3.418,0v-2.423h2.049v2.423Zm-3.418,0v-2.423h2.049v2.423Zm-3.42,0v-2.423h2.05v2.423Zm-3.418,0v-2.423h2.048v2.423Zm-3.417,0v-2.423h2.047v2.423Zm-3.42,0v-2.423h2.049v2.423Zm-3.418,0v-2.423h2.049v2.423Zm-3.417,0v-2.423h2.047v2.423Zm-19.545-15.955a14.486,14.486,0,0,1,7.975-18.838,14.415,14.415,0,0,1,5.411-1.057,14.493,14.493,0,0,1,13.429,9.036,13.993,13.993,0,0,1,.939,3.593q.08.61.106,1.215a14.484,14.484,0,0,1-9.066,14.043,1.268,1.268,0,0,1-.134.05h0l-.042.015a14.276,14.276,0,0,1-5.158.963A14.54,14.54,0,0,1-5395.942,268.895Zm11.542,5.119a.685.685,0,0,0,.6.757,11.378,11.378,0,0,0,1.252.069,11.413,11.413,0,0,0,4.279-.833,11.4,11.4,0,0,0,4.5-3.3.684.684,0,0,0-.094-.965.685.685,0,0,0-.963.093,10.011,10.011,0,0,1-3.961,2.9,9.977,9.977,0,0,1-4.863.672.7.7,0,0,0-.073,0A.687.687,0,0,0-5384.4,274.014Zm6.691-5.31a7.092,7.092,0,0,1-2.152,1.36,7.088,7.088,0,0,1-2.489.52.685.685,0,0,0-.668.7.686.686,0,0,0,.684.668h.019a8.46,8.46,0,0,0,2.967-.621,8.452,8.452,0,0,0,2.567-1.623.685.685,0,0,0,.04-.967.683.683,0,0,0-.5-.22A.685.685,0,0,0-5377.71,268.7Zm-8.235-5.24a3.409,3.409,0,0,0,3.41,3.409,3.409,3.409,0,0,0,3.409-3.409,3.41,3.41,0,0,0-3.409-3.409A3.41,3.41,0,0,0-5385.945,263.464Zm.222-7.87a8.479,8.479,0,0,0-2.562,1.621.684.684,0,0,0-.042.967.683.683,0,0,0,.505.222.684.684,0,0,0,.463-.18,7.087,7.087,0,0,1,2.149-1.36,7.111,7.111,0,0,1,2.493-.52.684.684,0,0,0,.668-.7.685.685,0,0,0-.684-.668h-.018A8.463,8.463,0,0,0-5385.723,255.594Zm-1.083-2.672a11.4,11.4,0,0,0-4.5,3.3.684.684,0,0,0,.093.963.679.679,0,0,0,.435.157.681.681,0,0,0,.528-.249,10.019,10.019,0,0,1,3.962-2.9,9.993,9.993,0,0,1,4.863-.672.685.685,0,0,0,.758-.6.685.685,0,0,0-.6-.757,11.279,11.279,0,0,0-1.248-.069A11.425,11.425,0,0,0-5386.806,252.923Zm37.757,11.728v-2.424H-5347v2.424Zm-3.418,0v-2.424h2.049v2.424Zm-3.418,0v-2.424h2.049v2.424Zm-3.42,0v-2.424h2.05v2.424Zm-3.418,0v-2.424h2.048v2.424Zm-3.417,0v-2.424h2.047v2.424Z" transform="translate(5397 -249)" fill="url(#linear-gradient)"/>
        <path id="Path_556" data-name="Path 556" d="M52.392,48.867c-.037.2-.076.4-.121.6s-.1.42-.158.628-.106.392-.166.586-.136.411-.209.614-.135.38-.209.566c-.081.2-.17.4-.259.6-.082.182-.161.364-.249.542-.1.2-.205.391-.311.584-.094.172-.185.345-.285.512-.116.194-.241.381-.365.57-.1.159-.205.321-.315.476-.135.191-.281.374-.425.559-.113.145-.22.293-.338.434-.16.191-.331.373-.5.558-.114.124-.222.253-.34.374-.2.21-.422.408-.639.606-.093.085-.181.177-.277.26q-.476.415-.987.793c-.082.061-.171.114-.254.173-.264.187-.529.372-.805.544-.135.084-.278.157-.416.237-.234.136-.466.273-.709.4-.16.082-.327.153-.491.23-.2.093-.393.194-.6.28v3h29.4V48.554H52.455C52.438,48.659,52.411,48.762,52.392,48.867Zm2.968,3.5,7.408,3.7-7.408,3.7Z" transform="translate(-22.362 -31.533)" fill="#fc0"/>
      </g>
    </g>
  </g>
</svg>
