<svg xmlns="http://www.w3.org/2000/svg" xmlns:xlink="http://www.w3.org/1999/xlink" width="50" height="50" viewBox="0 0 50 50">
  <defs>
    <linearGradient id="linear-gradient" x1="0.556" y1="1" x2="0.539" gradientUnits="objectBoundingBox">
      <stop offset="0" stop-color="#472dc2"/>
      <stop offset="1" stop-color="#a491ee"/>
      <stop offset="1" stop-color="#a592ef"/>
    </linearGradient>
    <clipPath id="clip-retail">
      <rect width="50" height="50"/>
    </clipPath>
  </defs>
  <g id="retail" clip-path="url(#clip-retail)">
    <rect width="50" height="50" fill="#fff"/>
    <g id="noun_Shop_1138108" transform="translate(-2.836 -2.9)">
      <path id="Path_566" data-name="Path 566" d="M10.315,9.6H50.98a1.228,1.228,0,0,0,1.215-1.215V5.115A1.228,1.228,0,0,0,50.98,3.9H10.315A1.228,1.228,0,0,0,9.1,5.115V8.389A1.265,1.265,0,0,0,10.315,9.6Z" transform="translate(-2.956)" fill="#fc0"/>
      <path id="Path_567" data-name="Path 567" d="M52.566,31.4l-3.327-9.242V19.515A1.228,1.228,0,0,0,48.025,18.3H7.359a1.228,1.228,0,0,0-1.215,1.215v2.852L2.923,31.4a1.938,1.938,0,0,0,1.32,2.377A1.97,1.97,0,0,0,6.461,33.3V58.121a1.228,1.228,0,0,0,1.215,1.215H33.554V39.689h9.717V59.335h4.806a1.228,1.228,0,0,0,1.215-1.215V33.51a2.058,2.058,0,0,0,2.007.264A1.905,1.905,0,0,0,52.566,31.4Zm-36.652.951.106-.845,1.056-7.341h4.964L20.985,31.5l-.106.845a2.986,2.986,0,0,1-2.852,2.482A2.082,2.082,0,0,1,15.915,32.348ZM8.943,34.83a1.936,1.936,0,0,1-1.954-2.482l.158-.845,1.584-7.341H13.7L12.112,31.5l-.158.845A3.206,3.206,0,0,1,8.943,34.83ZM27.692,53h-16V39.689H27.745V53Zm2.482-21.442V32.4a2.482,2.482,0,1,1-4.964,0V24.162h4.964Zm7.235,3.274a2.986,2.986,0,0,1-2.852-2.482l-.106-.845L33.4,24.162H38.36L39.416,31.5l.106.845A2.058,2.058,0,0,1,37.409,34.83Zm8.925,0a3.206,3.206,0,0,1-3.01-2.482l-.158-.845-1.584-7.341h4.964L48.13,31.5l.158.845A1.936,1.936,0,0,1,46.335,34.83Z" transform="translate(0 -6.795)" fill="url(#linear-gradient)"/>
    </g>
  </g>
</svg>
