<svg xmlns="http://www.w3.org/2000/svg" xmlns:xlink="http://www.w3.org/1999/xlink" width="50" height="50" viewBox="0 0 50 50">
  <defs>
    <linearGradient id="linear-gradient" x1="0.632" y1="1" x2="0.623" y2="-0.194" gradientUnits="objectBoundingBox">
      <stop offset="0" stop-color="#472dc2"/>
      <stop offset="1" stop-color="#a592ef"/>
    </linearGradient>
    <linearGradient id="linear-gradient-2" x1="0.827" y1="1.05" x2="0.842" y2="-0.079" xlink:href="#linear-gradient"/>
    <clipPath id="clip-tours-and-travels">
      <rect width="50" height="50"/>
    </clipPath>
  </defs>
  <g id="tours-and-travels" clip-path="url(#clip-tours-and-travels)">
    <rect width="50" height="50" fill="#fff"/>
    <g id="itinerary" transform="translate(2.79 -6.791)">
      <g id="Group_154" data-name="Group 154" transform="translate(-0.001 8.77)">
        <g id="Group_153" data-name="Group 153" transform="translate(0 0)">
          <path id="Union_36" data-name="Union 36" d="M0,28.116c0-1.021,1.728-2.331,5.008-2.951.354.612.683,1.169.981,1.641a3.136,3.136,0,0,0,5.291,0c.3-.472.627-1.028.981-1.641,3.28.62,5.007,1.93,5.007,2.951,0,1.546-3.689,3.281-8.634,3.281S0,29.662,0,28.116Zm7.315-2.159C4.435,21.444,0,11.987,0,8.666a8.634,8.634,0,1,1,17.268,0c0,3.321-4.434,12.778-7.314,17.291a1.558,1.558,0,0,1-2.639,0ZM2.355,8.634A6.279,6.279,0,1,0,8.634,2.355,6.279,6.279,0,0,0,2.355,8.634Z" transform="translate(0 12.559)" fill="url(#linear-gradient)"/>
          <path id="Union_38" data-name="Union 38" d="M0,18.054a4.709,4.709,0,1,1,4.71,4.709A4.71,4.71,0,0,1,0,18.054Zm32.18-15.7A2.355,2.355,0,1,1,34.535,4.71,2.356,2.356,0,0,1,32.18,2.355Z" transform="translate(3.926 3.14)" fill="#fc0"/>
          <path id="Union_37" data-name="Union 37" d="M0,18.054c0-.966.865-1.909,2.237-2.512.463.864.911,1.632,1.272,2.206a2.353,2.353,0,0,0,3.971,0c.361-.574.809-1.343,1.272-2.206,1.374.6,2.236,1.546,2.236,2.512,0,1.7-2.52,3.14-5.493,3.14S0,19.757,0,18.054Zm4.836-1.147C2.937,13.917,0,7.685,0,5.519a5.494,5.494,0,1,1,10.989,0c0,2.166-2.935,8.4-4.834,11.389a.8.8,0,0,1-1.318,0ZM1.57,5.495A3.925,3.925,0,1,0,5.5,1.57,3.926,3.926,0,0,0,1.57,5.495Z" transform="translate(32.966)" fill="url(#linear-gradient-2)"/>
          <path id="Union_39" data-name="Union 39" d="M14.2,24.333a.785.785,0,1,1,0-1.57h1.578a.785.785,0,1,1,0,1.57Zm-4.737,0a.785.785,0,0,1,0-1.57h1.579a.785.785,0,0,1,0,1.57Zm-4.737,0a.785.785,0,0,1,0-1.57h1.58a.785.785,0,0,1,0,1.57Zm-3.943,0a.785.785,0,0,1,0-1.57H1.57a.785.785,0,0,1,0,1.57Zm17.368-.791a.785.785,0,0,1,.695-.824,7.025,7.025,0,0,0,1.384-.3.785.785,0,1,1,.487,1.493,8.638,8.638,0,0,1-1.7.369c-.029,0-.059.005-.088.005A.785.785,0,0,1,18.152,23.543Zm4.313-1.655a.785.785,0,0,1,.219-.866,7.24,7.24,0,0,0,.972-1.036.785.785,0,0,1,1.246.957A8.692,8.692,0,0,1,23.715,22.2a.778.778,0,0,1-.515.194A.785.785,0,0,1,22.465,21.888Zm2.571-3.76a.787.787,0,0,1-.141-.677,6.89,6.89,0,0,0,.213-1.4.785.785,0,0,1,1.568.077,8.655,8.655,0,0,1-.26,1.715.785.785,0,0,1-1.38.286Zm-.354-4.867a7.042,7.042,0,0,0-.624-1.272.785.785,0,1,1,1.332-.831,8.644,8.644,0,0,1,.763,1.558.784.784,0,1,1-1.471.545Zm-2.109-3.186a.778.778,0,0,1-.453-.144,7.066,7.066,0,0,0-1.234-.7A.785.785,0,1,1,21.52,7.8a8.582,8.582,0,0,1,1.506.855.784.784,0,0,1-.451,1.425Zm-4.435-1.44H16.56a.785.785,0,1,1,0-1.569h1.588a.785.785,0,0,1-.005,1.57Zm-6.315,0a.785.785,0,1,1,0-1.569h1.521a.811.811,0,0,1,.814.785.767.767,0,0,1-.212.552.758.758,0,0,1-.544.232Zm-4.737,0a.785.785,0,0,1,0-1.569h1.58a.785.785,0,1,1,0,1.569ZM3.615,7.989A4.371,4.371,0,0,1,2.252,6.648.785.785,0,0,1,3.574,5.8a2.777,2.777,0,0,0,.869.855.785.785,0,0,1-.415,1.452H4.022A.777.777,0,0,1,3.615,7.989ZM1.9,3.651a.787.787,0,0,1-.107-.708,4.355,4.355,0,0,1,1-1.633A.785.785,0,0,1,3.916,2.4a2.748,2.748,0,0,0-.634,1.04A.784.784,0,0,1,1.9,3.651ZM10.989,1.57a.785.785,0,0,1,0-1.57h.785a.785.785,0,1,1,0,1.57Zm-4.771,0a.785.785,0,0,1,0-1.57H7.8a.785.785,0,0,1,0,1.57Z" transform="translate(18.838 17.268)" fill="#533ac8"/>
        </g>
      </g>
    </g>
  </g>
</svg>
