<svg xmlns="http://www.w3.org/2000/svg" xmlns:xlink="http://www.w3.org/1999/xlink" width="47" height="47" viewBox="0 0 47 47">
  <defs>
    <linearGradient id="linear-gradient" x1="0.498" y1="1.001" x2="0.498" y2="-0.001" gradientUnits="objectBoundingBox">
      <stop offset="0" stop-color="#7a65cc"/>
      <stop offset="1" stop-color="#a592ef"/>
    </linearGradient>
  </defs>
  <g id="Accounting-_-Finance" data-name="Accounting-&amp;-Finance" transform="translate(-2 -2)">
    <g id="Group" transform="translate(2 2)">
      <path id="Path" d="M46.266,37H37.734a.727.727,0,0,0-.734.734v8.532a.722.722,0,0,0,.448.675.669.669,0,0,0,.286.059.722.722,0,0,0,.514-.213l8.54-8.539A.733.733,0,0,0,46.266,37Z" fill="#472dc2"/>
      <path id="Path-2" data-name="Path" d="M39.5,30a.8.8,0,0,0,.742-.486L43,23H36l2.758,6.514A.8.8,0,0,0,39.5,30Z" fill="url(#linear-gradient)"/>
      <path id="Combined-Shape" d="M36,9.294V6.271A2.185,2.185,0,0,1,38.079,4h2.834A2.186,2.186,0,0,1,43,6.271V22H36Z" fill="url(#linear-gradient)"/>
      <path id="Shape" d="M46.264,19H44.195v4.6l-.127.3-2.756,6.451a2.225,2.225,0,0,1-4.078-.017l-2.748-6.434-.127-.3V19H25.65V33.7a2.189,2.189,0,0,1-2.209,2.164H17V46.279a.729.729,0,0,0,.736.721H35.629a2.158,2.158,0,0,1-.129-.722V37.895a2.189,2.189,0,0,1,2.209-2.164h8.555a2.261,2.261,0,0,1,.736.127V19.721A.729.729,0,0,0,46.264,19ZM34.289,42.807h-.007L20.49,42.673A.721.721,0,1,1,20.5,41.23H20.5l13.792.134a.722.722,0,1,1-.007,1.443Zm8.742-8.791H26.673a.722.722,0,1,1,0-1.443H43.031a.722.722,0,1,1,0,1.443Z" fill="#fc0"/>
      <path id="Shape-2" data-name="Shape" d="M24,33.27V.73A.731.731,0,0,0,23.273,0H.727A.731.731,0,0,0,0,.73V33.27A.726.726,0,0,0,.727,34H23.273A.726.726,0,0,0,24,33.27ZM6.015,30.641a2.5,2.5,0,1,1,2.487-2.5A2.5,2.5,0,0,1,6.015,30.641Zm0-6.185a2.5,2.5,0,1,1,2.487-2.5A2.5,2.5,0,0,1,6.015,24.456Zm0-6.192a2.5,2.5,0,1,1,2.487-2.5A2.5,2.5,0,0,1,6.015,18.263ZM12,30.641a2.5,2.5,0,1,1,2.487-2.5A2.491,2.491,0,0,1,12,30.641Zm0-6.185a2.5,2.5,0,1,1,2.487-2.5A2.5,2.5,0,0,1,12,24.456Zm0-6.192a2.5,2.5,0,1,1,2.487-2.5A2.491,2.491,0,0,1,12,18.263Zm5.985,12.378a2.5,2.5,0,1,1,2.495-2.5A2.5,2.5,0,0,1,17.985,30.641Zm0-6.185a2.5,2.5,0,1,1,2.495-2.5A2.5,2.5,0,0,1,17.985,24.456Zm0-6.192a2.5,2.5,0,1,1,2.495-2.5A2.5,2.5,0,0,1,17.985,18.263ZM20.48,10.64a.731.731,0,0,1-.727.73H4.247a.731.731,0,0,1-.727-.73V4.265a.731.731,0,0,1,.727-.73H19.753a.731.731,0,0,1,.727.73V10.64Z" fill="#472dc2"/>
    </g>
  </g>
</svg>
