<svg xmlns="http://www.w3.org/2000/svg" xmlns:xlink="http://www.w3.org/1999/xlink" width="50" height="50" viewBox="0 0 50 50">
  <defs>
    <linearGradient id="linear-gradient" x1="0.578" y1="1" x2="0.578" gradientUnits="objectBoundingBox">
      <stop offset="0" stop-color="#472dc2"/>
      <stop offset="1" stop-color="#a592ef"/>
    </linearGradient>
    <clipPath id="clip-architecture">
      <rect width="50" height="50"/>
    </clipPath>
  </defs>
  <g id="architecture" clip-path="url(#clip-architecture)">
    <rect width="50" height="50" fill="#fff"/>
    <g id="noun_faculty_of_architecture_2083695" data-name="noun_faculty of architecture_2083695" transform="translate(-35.917 -24.314)">
      <path id="Union_80" data-name="Union 80" d="M12.5,39.16H3.389a.832.832,0,0,1-.832-.833V19.273a.831.831,0,0,1,.832-.831H26.1a.831.831,0,0,1,.835.833v8.239a3.1,3.1,0,0,1-.181,1.046L23.276,38.3h0a1.289,1.289,0,0,1-1.214.853h-3.33a.712.712,0,0,1-.712-.712V29.65a.525.525,0,0,0-.525-.525H12a.525.525,0,0,0-.525.525v6.82a1.049,1.049,0,0,0,1.055,1.1.795.795,0,0,1,.79.872.817.817,0,0,1-.811.716Zm1.975-.795a.794.794,0,1,1,.794.793A.794.794,0,0,1,14.47,38.365Zm14.012-21.51H1.009a1.008,1.008,0,0,1-.741-1.693L14.011.323a1.009,1.009,0,0,1,1.48,0l13.732,14.84a1.008,1.008,0,0,1-.739,1.693Z" transform="translate(36.917 24.314)" fill="url(#linear-gradient)"/>
      <path id="Union_79" data-name="Union 79" d="M26.468,40.542l-1.763-1.42a1.282,1.282,0,0,0-.692-.357l-.183-.032a1.326,1.326,0,0,1-1.014-.87L19.4,28.285H11.032a.406.406,0,0,1-.388-.525l.8-2.588a.766.766,0,0,1,.733-.542H18.1L13.792,12.557a.221.221,0,0,0-.416,0L4.351,37.863a1.326,1.326,0,0,1-1.014.87l-.185.032a1.29,1.29,0,0,0-.692.357l-1.429,1.42a.584.584,0,0,1-.415.18.629.629,0,0,1-.575-.853l.249-.7L2.8,32.144,10.908,9.421a.74.74,0,0,1,.692-.5h3.963a.74.74,0,0,1,.692.5l11.2,30.449a.628.628,0,0,1-.574.853A.58.58,0,0,1,26.468,40.542ZM11.124,6.894a.469.469,0,0,1-.138-.332V4.882a.469.469,0,0,1,.47-.469H12.49V1.26a1.26,1.26,0,0,1,2.52,0V4.413h1.033a.469.469,0,0,1,.469.469V6.562a.469.469,0,0,1-.469.469H11.456A.469.469,0,0,1,11.124,6.894Z" transform="translate(58.151 33.592)" fill="#fc0"/>
    </g>
  </g>
</svg>
