<?xml version="1.0" encoding="UTF-8"?>
<svg width="50px" height="50px" viewBox="0 0 50 50" version="1.1" xmlns="http://www.w3.org/2000/svg" xmlns:xlink="http://www.w3.org/1999/xlink">
    <!-- Generator: Sketch 55 (78076) - https://sketchapp.com -->
    <title>Automobile industries</title>
    <desc>Created with Sketch.</desc>
    <defs>
        <linearGradient x1="49.8374046%" y1="100.110029%" x2="49.8374046%" y2="-0.133810888%" id="linearGradient-1">
            <stop stop-color="#7A65CC" offset="0%"></stop>
            <stop stop-color="#A592EF" offset="100%"></stop>
        </linearGradient>
    </defs>
    <g id="Automobile-industries" stroke="none" stroke-width="1" fill="none" fill-rule="evenodd">
        <g id="Group" transform="translate(1.000000, 4.000000)">
            <path d="M7.50001459,19.0001318 C5.5614222,18.9839193 3.99194103,20.5565284 4.00003114,22.5020241 C3.99194103,24.4347464 5.5614222,26.0053903 7.50001459,25.9999861 C9.43203378,26.004899 11.0020206,24.4342551 10.999998,22.5020241 C11.0015149,20.5565284 9.43253941,18.9834281 7.50001459,19.0001318 Z" id="Path"></path>
            <path d="M40.5163563,19.0001318 C38.5737292,18.9839193 37.0100654,20.5565284 37,22.5020241 C37.0105687,24.4347464 38.5737292,26.0053903 40.5163563,25.9999861 C42.4262708,26.004899 43.9879215,24.4342551 44,22.5020241 C43.9884248,20.5565284 42.4262708,18.9834281 40.5163563,19.0001318 Z" id="Path"></path>
            <path d="M48,32.5723941 C48,33.360839 47.3907492,34 46.6392002,34 L1.36032607,34 C1.45632415,34 1.55000487,33.9895692 1.64039439,33.9697303 C0.81352225,33.8431643 0.157659293,33.1637022 0.024687045,32.3005005 C0.00848954221,32.3885271 6.25205657e-06,32.4794269 6.25205657e-06,32.5723941 L6.25205657e-06,20.6661101 C-0.00431374738,17.3833718 2.23104596,15.4995362 3.81792575,15 L44.1523205,15 C45.7502403,15.4995362 47.98944,17.3833718 48,20.6661101 L48,32.5723941 Z M7.54896527,26.0477061 C9.38304503,26.0522382 10.8729648,24.4428454 10.8715248,22.4623254 C10.8734448,20.4682092 9.38352503,18.8562985 7.54896527,18.8729162 C5.70864551,18.8562985 4.2187257,20.4682092 4.2264057,22.4623254 C4.2187257,24.4428454 5.70864551,26.0532453 7.54896527,26.0477061 Z M40.451041,26.0477061 C42.2726407,26.0522382 43.7625606,24.4428454 43.7736006,22.4623254 C43.7620806,20.4682092 42.2726407,18.8562985 40.451041,18.8729162 C38.5982412,18.8562985 37.1073614,20.4682092 37.0972814,22.4623254 C37.1068814,24.4428454 38.5982412,26.0532453 40.451041,26.0477061 Z" id="Combined-Shape" fill="#472DC2" fill-rule="nonzero"></path>
            <path d="M43,14 L38.1763701,0.986367052 L38.1106739,0.809031381 C37.89872,0.347658067 37.457549,0.0265502558 36.939173,0.00551043046 C36.9219098,0.00500948223 36.9056056,0 36.8883424,0 C36.8710792,0 36.854775,0.00450853401 36.8375118,0.00551043046 L33.8293966,0.00551043046 L32.1337653,0.00551043046 C17.430941,0.0065123269 10.0739343,0.00734724061 10.0627451,0.00801517157 C9.5434101,0.029054997 9.10223905,0.350663756 8.89076467,0.811536122 L8.82506855,0.988871793 L4,14 L43,14 Z" id="Path" fill="#FFCC00" fill-rule="nonzero"></path>
            <path d="M12.2966988,35 L4.70271333,35 C3.76217422,35 4.00001322,35.5648851 4.00001322,36.2615323 L4.00001322,39.3040014 C3.98965797,43.180202 13.0019957,43.180202 12.9999995,39.3040014 L12.9999995,36.2615323 C12.9999995,35.5648851 13.2378385,35 12.2966988,35 Z" id="Path" fill="url(#linearGradient-1)" fill-rule="nonzero"></path>
            <path d="M43.3235174,35.1631143 L35.7295319,35.1631143 C34.7889928,35.1631143 35.0268318,35.7279994 35.0268318,36.4246466 L35.0268318,39.4671157 C35.0164765,43.3433163 44.0288142,43.3433163 44.0268181,39.4671157 L44.0268181,36.4246466 C44.0268181,35.7279994 44.2646571,35.1631143 43.3235174,35.1631143 Z" id="Path-Copy" fill="url(#linearGradient-1)" fill-rule="nonzero"></path>
        </g>
    </g>
</svg>