<svg xmlns="http://www.w3.org/2000/svg" xmlns:xlink="http://www.w3.org/1999/xlink" width="44.663" height="45" viewBox="0 0 44.663 45">
  <defs>
    <linearGradient id="linear-gradient" x1="0.498" y1="1.001" x2="0.498" y2="-0.001" gradientUnits="objectBoundingBox">
      <stop offset="0" stop-color="#7a65cc"/>
      <stop offset="1" stop-color="#a592ef"/>
    </linearGradient>
  </defs>
  <g id="businessprocess-erp-inventory" transform="translate(-3 -2)">
    <g id="Group-2" transform="translate(3 2)">
      <path id="Shape" d="M16.274,34.652l-1.09-.222c-.145-.369-.291-.813-.436-1.183l.654-.961a.793.793,0,0,0-.073-.961l-1.671-1.7a.751.751,0,0,0-.944-.074l-.944.665a5.574,5.574,0,0,0-1.162-.517l-.218-1.109A.71.71,0,0,0,9.662,28h-2.4a.71.71,0,0,0-.727.591L6.321,29.7c-.363.148-.8.3-1.162.443l-.944-.665a.759.759,0,0,0-.944.074L1.6,31.252a.785.785,0,0,0-.073.961l.654.961a5.773,5.773,0,0,0-.509,1.183l-1.09.222A.717.717,0,0,0,0,35.317v2.439a.717.717,0,0,0,.581.739l1.09.222A8.287,8.287,0,0,0,2.179,39.9l-.654.887a.793.793,0,0,0,.073.961l1.744,1.626a.751.751,0,0,0,.944.074l.944-.665a5.576,5.576,0,0,0,1.162.517l.218,1.109A.71.71,0,0,0,7.338,45h2.4a.71.71,0,0,0,.726-.591l.218-1.109c.436-.148.8-.3,1.162-.444l.944.665a.759.759,0,0,0,.944-.074l1.671-1.7a.785.785,0,0,0,.073-.961l-.654-.961a5.77,5.77,0,0,0,.509-1.183l1.09-.222A.717.717,0,0,0,17,37.683V35.243A1.2,1.2,0,0,0,16.274,34.652ZM11.688,36.5A3.188,3.188,0,1,1,8.5,33.313,3.216,3.216,0,0,1,11.688,36.5Z" fill="url(#linear-gradient)"/>
      <g id="Group" transform="translate(16 10)">
        <path id="Path" d="M5.193,11.635a.655.655,0,0,1,0-.947l6-5.615a.705.705,0,0,1,.877-.068l5.463,4.059,5.8-6.359H21.379a.726.726,0,0,1-.674-.676.677.677,0,0,1,.674-.676h3.642c.067,0,.067.068.135.068a.066.066,0,0,1,.068.068h0c.067.068.067.068.067.135a.066.066,0,0,0,.067.068v.271h0v3.45a.677.677,0,0,1-.674.676.726.726,0,0,1-.674-.676V3.721l-6.07,6.7a.634.634,0,0,1-.877.068l-5.53-4.059c-5.8,5.344-5.53,5.412-6,5.412A.616.616,0,0,1,5.193,11.635Z" fill="#fc0"/>
        <path id="Path-2" data-name="Path" d="M28.663,21.985a.677.677,0,0,1-.674.677H1.281a.638.638,0,0,1-.674-.677V1.218A.677.677,0,0,1,1.281.541a.726.726,0,0,1,.674.676V21.309H3.709V15.965c0-1.082,1.686-.541,3.237-.676,1.147,0,.472,1.624.674,6.021H9.712V10.35a.677.677,0,0,1,.674-.676h2.563a.726.726,0,0,1,.674.676V21.309h2.091V14a.677.677,0,0,1,.674-.676h2.5a.638.638,0,0,1,.674.676v7.306h2.091V9.132a.677.677,0,0,1,.674-.676h2.563a.638.638,0,0,1,.674.676V21.309h2.428A.638.638,0,0,1,28.663,21.985Z" fill="#fc0"/>
      </g>
      <path id="Path-3" data-name="Path" d="M29,1V7h6Z" fill="url(#linear-gradient)"/>
      <path id="Path-4" data-name="Path" d="M35.932,8.213H28.41a.733.733,0,0,1-.684-.679V0H4.684A.683.683,0,0,0,4,.679V28.371h.068a2.318,2.318,0,0,1,1.162.339,1.984,1.984,0,0,1,1.983-1.629H9.47a1.99,1.99,0,0,1,1.983,1.7,2.318,2.318,0,0,1,1.162-.339,1.869,1.869,0,0,1,1.436.611l.957.95V11.063a2.051,2.051,0,0,1,4.1,0v13.1c.821-.543,1.436-.272,3.692-.339a1.869,1.869,0,0,1,1.436.611V21.312l-1.3,1.222a2.048,2.048,0,0,1-2.8-2.986l6.085-5.634a2.12,2.12,0,0,1,2.667-.136L33.47,17.1,36,14.321V8.213Z" fill="#472dc2"/>
      <path id="Path-5" data-name="Path" d="M18.29,34.061a1.748,1.748,0,0,1,.5,1.152v2A1.894,1.894,0,0,1,17,38.97,1.418,1.418,0,0,1,17.358,40H37.283A.668.668,0,0,0,38,39.394V34Z" fill="#472dc2"/>
    </g>
  </g>
</svg>
