<svg xmlns="http://www.w3.org/2000/svg" xmlns:xlink="http://www.w3.org/1999/xlink" width="50" height="50" viewBox="0 0 50 50">
  <defs>
    <linearGradient id="linear-gradient" x1="0.578" y1="1" x2="0.578" gradientUnits="objectBoundingBox">
      <stop offset="0" stop-color="#472dc2"/>
      <stop offset="1" stop-color="#a592ef"/>
    </linearGradient>
    <clipPath id="clip-finance">
      <rect width="50" height="50"/>
    </clipPath>
  </defs>
  <g id="finance" clip-path="url(#clip-finance)">
    <rect width="50" height="50" fill="#fff"/>
    <g id="noun_finance_2500541" transform="translate(-2.5 -6)">
      <g id="Group_247" data-name="Group 247" transform="translate(2.5 9)">
        <path id="Path_550" data-name="Path 550" d="M11.278,31.793v1.79a.887.887,0,0,0,.895.895h2.106a.887.887,0,0,0,.895-.895V31.846a6.9,6.9,0,0,0,3.79-1.948,5.638,5.638,0,0,0,1.579-4.106,10.222,10.222,0,0,0-.105-1.263,6.157,6.157,0,0,0-.263-1.053,4.267,4.267,0,0,0-.526-.948,9.164,9.164,0,0,0-.632-.737,3.886,3.886,0,0,0-.842-.632c-.316-.211-.632-.368-.895-.526a10.252,10.252,0,0,0-1.053-.474c-.421-.158-.79-.263-1.158-.421-.421-.105-.79-.211-1.316-.368a7.546,7.546,0,0,1-2.211-.948,1.034,1.034,0,0,1-.526-.895,1.023,1.023,0,0,1,.421-.842,2.75,2.75,0,0,1,1.474-.368,6.913,6.913,0,0,1,3.9,1.316.885.885,0,0,0,1.158-.158L19.7,15.264a.8.8,0,0,0,.158-.684A1.255,1.255,0,0,0,19.543,14a10.485,10.485,0,0,0-2-1.158A13.194,13.194,0,0,0,15.121,12V9.895A.845.845,0,0,0,14.279,9H12.121a.887.887,0,0,0-.895.895v1.948a6.367,6.367,0,0,0-3.79,1.9,5.875,5.875,0,0,0-1.527,4.053A7.853,7.853,0,0,0,6.014,18.9a5.552,5.552,0,0,0,.263,1,4.2,4.2,0,0,0,.421.842,3.975,3.975,0,0,0,.579.737,6.309,6.309,0,0,0,.632.579,2.95,2.95,0,0,0,.79.526A6.285,6.285,0,0,0,9.541,23a8.989,8.989,0,0,0,.948.368c.368.105.632.211.948.316a7.631,7.631,0,0,0,1,.316c.421.105.737.211,1.053.316l.79.316a5.742,5.742,0,0,1,.579.316.894.894,0,0,1,.316.316.478.478,0,0,1,.158.368,1.307,1.307,0,0,1,.053.474,1.223,1.223,0,0,1-.474,1c-.79.579-2.369.526-3.948-.105A7.17,7.17,0,0,1,8.91,25.687a.919.919,0,0,0-.632-.211.727.727,0,0,0-.579.316L5.909,27.95a.892.892,0,0,0,.053,1.211A10.388,10.388,0,0,0,11.278,31.793Z" transform="translate(-4.014 -9)" fill="#fc0"/>
        <path id="Path_551" data-name="Path 551" d="M50.192,57.057H46.086V30.105A1.079,1.079,0,0,0,44.98,29h-6.9a1.112,1.112,0,0,0-1.105,1.105V57.057H32.031V39.265a1.079,1.079,0,0,0-1.105-1.105H24.082a1.079,1.079,0,0,0-1.105,1.105V57H18.029V48.477a1.079,1.079,0,0,0-1.105-1.105h-6.9a1.079,1.079,0,0,0-1.105,1.105v8.58H4.816a2.316,2.316,0,0,0,0,4.632H50.244a2.337,2.337,0,0,0,2.316-2.316A2.382,2.382,0,0,0,50.192,57.057Z" transform="translate(-2.5 -18.472)" fill="url(#linear-gradient)"/>
      </g>
    </g>
  </g>
</svg>
