<svg xmlns="http://www.w3.org/2000/svg" xmlns:xlink="http://www.w3.org/1999/xlink" width="50" height="50" viewBox="0 0 50 50">
  <defs>
    <linearGradient id="linear-gradient" x1="0.578" y1="1" x2="0.578" gradientUnits="objectBoundingBox">
      <stop offset="0" stop-color="#472dc2"/>
      <stop offset="1" stop-color="#a592ef"/>
    </linearGradient>
    <clipPath id="clip-hospitality">
      <rect width="50" height="50"/>
    </clipPath>
  </defs>
  <g id="hospitality" clip-path="url(#clip-hospitality)">
    <rect width="50" height="50" fill="#fff"/>
    <g id="noun_Waiter_1793851" transform="translate(-9.585 48.637)">
      <g id="Group_244" data-name="Group 244" transform="translate(7.226 -53.2)">
        <path id="Union_78" data-name="Union 78" d="M-5250.876,426.005a3.272,3.272,0,0,1-2.813-1.72l-.833-1.667a1.07,1.07,0,0,1,.938-1.564h14.85a1.071,1.071,0,0,1,.938,1.564l-.886,1.667a3.151,3.151,0,0,1-2.813,1.72Zm4.273-7.139a3.825,3.825,0,0,1-.938-2.136,3.043,3.043,0,0,1,.1-1.2,6.027,6.027,0,0,1,.365-1.043l.417-.885a2.229,2.229,0,0,0,.26-.678,3.372,3.372,0,0,0,0-.729.9.9,0,0,0-.051-.364,1.071,1.071,0,0,1-.1-.314l-.053-.26a.522.522,0,0,1,.417-.678.59.59,0,0,1,.574.157,3.175,3.175,0,0,1,.364.521,2.787,2.787,0,0,1,.261.574,5.122,5.122,0,0,1,.156,1.25,3.075,3.075,0,0,1-.26,1.2c-.1.313-.261.625-.365.886a6.685,6.685,0,0,0-.417,1.511,4.633,4.633,0,0,0,.313,1.563v.051a.619.619,0,0,1-.364.782.557.557,0,0,1-.208.041A.594.594,0,0,1-5246.6,418.866Zm4.064-.051a3.811,3.811,0,0,1-.937-2.136,3.025,3.025,0,0,1,.1-1.2,6.179,6.179,0,0,1,.364-1.042l.417-.886a2.206,2.206,0,0,0,.261-.677,3.468,3.468,0,0,0,0-.729.9.9,0,0,0-.052-.365,1.077,1.077,0,0,1-.105-.313l-.051-.208a.522.522,0,0,1,.417-.678.59.59,0,0,1,.574.157,3.21,3.21,0,0,1,.364.521,2.754,2.754,0,0,1,.26.574,5.076,5.076,0,0,1,.157,1.25,3.093,3.093,0,0,1-.26,1.2c-.1.313-.261.625-.365.886a4.735,4.735,0,0,0-.417,1.511,4.622,4.622,0,0,0,.313,1.563v.051a.62.62,0,0,1-.364.782.538.538,0,0,1-.2.04A.562.562,0,0,1-5242.539,418.815Zm-8.128,0a3.826,3.826,0,0,1-.939-2.136,3.061,3.061,0,0,1,.1-1.2,6.055,6.055,0,0,1,.366-1.042l.417-.886a2.211,2.211,0,0,0,.26-.677,3.372,3.372,0,0,0,0-.729.9.9,0,0,0-.051-.365,1.069,1.069,0,0,1-.1-.313l-.051-.208a.52.52,0,0,1,.416-.678.589.589,0,0,1,.574.157,3.129,3.129,0,0,1,.365.521,2.779,2.779,0,0,1,.26.574,5.147,5.147,0,0,1,.157,1.25,3.076,3.076,0,0,1-.261,1.2c-.1.313-.26.625-.364.886a6.556,6.556,0,0,0-.417,1.511,4.621,4.621,0,0,0,.313,1.563v.051a.62.62,0,0,1-.365.782.542.542,0,0,1-.2.04A.559.559,0,0,1-5250.667,418.815Z" transform="translate(5288.842 -404)" fill="#fc0"/>
        <path id="Union_77" data-name="Union 77" d="M-5240.5,454.642a2.691,2.691,0,0,1-2.71-2.709V440.418c-1.667,3.283-3.6,7.295-5.209,10.993a3.209,3.209,0,0,1-2.97,1.981,2.917,2.917,0,0,1-1.3-.261,3.206,3.206,0,0,1-1.667-4.272c9.014-20.529,11.306-20.529,13.286-20.529h.574l1.51,4.794a6.313,6.313,0,0,0,2.4,3.283.94.94,0,0,0,1.146,0,6.118,6.118,0,0,0,2.4-3.283l1.511-4.794h.572c1.928,0,3.126,1.3,4.481,2.866,1.3,1.407,3.179,3.542,4.793,3.438,1.146-.1,3.231-2.448,4.273-4.429h-4.429a1.734,1.734,0,0,1-1.72-1.718,1.736,1.736,0,0,1,1.72-1.72h15.058a1.607,1.607,0,0,1,1.563,1.72,1.733,1.733,0,0,1-1.718,1.718h-4.846a3.264,3.264,0,0,1,0,3.023c-.678,1.25-4.273,7.5-9.588,7.867-3.177.261-5.679-1.354-7.606-3.074v13.913a2.691,2.691,0,0,1-2.71,2.709Zm3.8-20.738a.73.73,0,0,1,.73-.729.73.73,0,0,1,.729.729.729.729,0,0,1-.729.729A.729.729,0,0,1-5236.7,433.9Zm-.052-2.709a.73.73,0,0,1,.729-.729.729.729,0,0,1,.729.729.728.728,0,0,1-.729.729A.729.729,0,0,1-5236.749,431.2Zm3.23-1.354-1.823-.886a.8.8,0,0,1-.625.365.8.8,0,0,1-.626-.365l-1.875.886a.514.514,0,0,1-.729-.47v-1.718a.507.507,0,0,1,.729-.47l1.824.886a.8.8,0,0,1,.625-.365.794.794,0,0,1,.625.365l1.824-.886a.514.514,0,0,1,.729.47v1.718a.532.532,0,0,1-.5.516A.335.335,0,0,1-5233.519,429.841Zm-10.316-11.411a7.867,7.867,0,0,1,7.868-7.867,7.866,7.866,0,0,1,7.867,7.867,7.866,7.866,0,0,1-7.867,7.867A7.867,7.867,0,0,1-5243.835,418.43Z" transform="translate(5257 -402.886)" fill="url(#linear-gradient)"/>
      </g>
    </g>
  </g>
</svg>
