<svg xmlns="http://www.w3.org/2000/svg" xmlns:xlink="http://www.w3.org/1999/xlink" width="47" height="47" viewBox="0 0 47 47">
  <defs>
    <linearGradient id="linear-gradient" x1="0.498" y1="1.001" x2="0.498" y2="-0.001" gradientUnits="objectBoundingBox">
      <stop offset="0" stop-color="#7a65cc"/>
      <stop offset="1" stop-color="#a592ef"/>
    </linearGradient>
  </defs>
  <g id="HRMS" transform="translate(-2 -2)">
    <g id="Group-3" transform="translate(2 2)">
      <path id="Shape" d="M46.438,5.875l-1-.187A7.624,7.624,0,0,0,45,4.625l.563-.812A.662.662,0,0,0,45.5,3L44,1.5a.578.578,0,0,0-.75-.125l-.812.563A5.407,5.407,0,0,0,41.375,1.5l-.187-1a.609.609,0,0,0-.625-.5H38.438a.609.609,0,0,0-.625.5l-.187,1a7.624,7.624,0,0,0-1.062.438l-.812-.562a.662.662,0,0,0-.812.063l-1.5,1.5a.655.655,0,0,0-.062.813l.563.813A5.407,5.407,0,0,0,33.5,5.625l-1,.188a.609.609,0,0,0-.5.625V8.563a.609.609,0,0,0,.5.625l1,.188a7.624,7.624,0,0,0,.438,1.063l-.562.813a.662.662,0,0,0,.063.813l1.5,1.5a.584.584,0,0,0,.813.063l.813-.562a5.407,5.407,0,0,0,1.063.438l.188,1a.609.609,0,0,0,.625.5h2.125a.609.609,0,0,0,.625-.5l.188-1a7.624,7.624,0,0,0,1.063-.437l.813.563a.662.662,0,0,0,.813-.062l1.5-1.5a.584.584,0,0,0,.063-.812l-.562-.812A5.407,5.407,0,0,0,45.5,9.375l1-.187a.609.609,0,0,0,.5-.625V6.438A.739.739,0,0,0,46.438,5.875ZM42.5,7.5a3,3,0,1,1-3-3A3.035,3.035,0,0,1,42.5,7.5Z" fill="url(#linear-gradient)"/>
      <g id="Group-4" transform="translate(11 14)">
        <path id="Path" d="M6.347,10.361a5.2,5.2,0,0,1-5.2-5.142A5.215,5.215,0,0,1,6.347,0a5.1,5.1,0,0,1,5.124,5.219A5.085,5.085,0,0,1,6.347,10.361Z" fill="#fc0"/>
        <path id="Path-2" data-name="Path" d="M12.618,14.888v9.286a.824.824,0,0,1-.765.767H10.247v6.216A1.864,1.864,0,0,1,8.412,33H4.206a1.864,1.864,0,0,1-1.835-1.842V24.942H.765A.824.824,0,0,1,0,24.174V14.888a3.864,3.864,0,0,1,3.594-4.068H8.947A3.873,3.873,0,0,1,12.618,14.888Z" fill="#fc0"/>
      </g>
      <path id="Path-3" data-name="Path" d="M35,18.073l-.078,5.179a.833.833,0,0,1-.622.773l-2.878.464a14.628,14.628,0,0,1-1.4,3.246l1.633,2.4a.815.815,0,0,1-.078,1l-3.733,3.633A.843.843,0,0,1,27.3,35a1.11,1.11,0,0,1-.467-.155l-1.556-1.082a.7.7,0,0,1-.311-.618V29.2a5.775,5.775,0,0,0-.389-2.01.735.735,0,0,1,.155-.773,9.075,9.075,0,0,0,2.1-5.874,9.411,9.411,0,0,0-18.822,0,9.075,9.075,0,0,0,2.1,5.874.947.947,0,0,1,.156.773,5.773,5.773,0,0,0-.389,2.01v3.71a.952.952,0,0,1-.311.618L7.856,34.691a.828.828,0,0,1-1.011-.077L3.189,30.9a.814.814,0,0,1-.078-1l1.711-2.4A14.973,14.973,0,0,1,3.5,24.256L.622,23.715A.754.754,0,0,1,0,22.942V17.763a.833.833,0,0,1,.622-.773L3.5,16.527A12.074,12.074,0,0,1,4.9,13.28l-1.633-2.4a.815.815,0,0,1,.078-1L7.078,6.246a.819.819,0,0,1,1.011-.077L10.5,7.792a15.176,15.176,0,0,1,3.267-1.314l.544-2.86A.756.756,0,0,1,15.089,3H20.3a.836.836,0,0,1,.778.618l.467,2.86a16.971,16.971,0,0,1,3.267,1.314l2.411-1.623a.828.828,0,0,1,1.011.077l3.656,3.71a.806.806,0,0,1,.078,1l-1.711,2.4A14.259,14.259,0,0,1,31.578,16.6l2.878.541A1.432,1.432,0,0,1,35,18.073Z" fill="#472dc2"/>
    </g>
  </g>
</svg>
