<svg xmlns="http://www.w3.org/2000/svg" xmlns:xlink="http://www.w3.org/1999/xlink" width="50" height="50" viewBox="0 0 50 50">
  <defs>
    <linearGradient id="linear-gradient" x1="0.516" y1="1" x2="0.5" gradientUnits="objectBoundingBox">
      <stop offset="0" stop-color="#472dc2"/>
      <stop offset="1" stop-color="#a592ef"/>
    </linearGradient>
    <linearGradient id="linear-gradient-2" x1="0.686" y1="1" x2="0.668" y2="-0.041" xlink:href="#linear-gradient"/>
    <clipPath id="clip-ites">
      <rect width="50" height="50"/>
    </clipPath>
  </defs>
  <g id="ites" clip-path="url(#clip-ites)">
    <rect width="50" height="50" fill="#fff"/>
    <g id="computer_1_" data-name="computer (1)" transform="translate(-1.719 -1.465)">
      <path id="Union_5" data-name="Union 5" d="M14.825,42.827H11.532V41.181h4.529l3.433-8.237h3.569v9.884ZM.825,31.3A.824.824,0,0,1,0,30.474V.823A.823.823,0,0,1,.825,0H45.3a.823.823,0,0,1,.825.823V15.647c-.027-.021-.366-.229-.513-.312-.071-.041-.276-.149-.312-.165V.823H.825V26.356H23.061V31.3Z" transform="translate(4 4.001)" fill="url(#linear-gradient)"/>
      <path id="Union_13" data-name="Union 13" d="M2.47,29.65A2.47,2.47,0,0,1,0,27.18V2.471A2.47,2.47,0,0,1,2.47,0H4.941V.823A2.471,2.471,0,0,0,7.412,3.295H14A2.471,2.471,0,0,0,16.472.823V0h2.47a2.179,2.179,0,0,1,.586.073l.04.009a2.46,2.46,0,0,1,1.846,2.388V27.18a2.47,2.47,0,0,1-2.471,2.47Zm10.708-2.47h1.647V25.532H13.178Zm-3.294,0H11.53V25.532H9.883Zm-3.294,0H8.236V25.532H6.589ZM7.412,1.648A.824.824,0,0,1,6.589.823V0h8.236V.823A.824.824,0,0,1,14,1.648Z" transform="translate(28.709 20.472)" fill="url(#linear-gradient-2)"/>
      <path id="Path_103" data-name="Path 103" d="M26.6,16.8H39.669V7H7V24.641H23.334V20.067A3.271,3.271,0,0,1,26.6,16.8Zm-1.307-2.613H26.6v1.307H25.294Zm-3.92,1.307H20.067V14.187h1.307Zm2.613,0H22.681V14.187h1.307Z" transform="translate(3.727 1.769)" fill="#fc0"/>
    </g>
  </g>
</svg>
