<svg xmlns="http://www.w3.org/2000/svg" xmlns:xlink="http://www.w3.org/1999/xlink" width="50" height="50" viewBox="0 0 50 50">
  <defs>
    <linearGradient id="linear-gradient" x1="0.556" y1="1" x2="0.539" gradientUnits="objectBoundingBox">
      <stop offset="0" stop-color="#472dc2"/>
      <stop offset="1" stop-color="#a491ee"/>
      <stop offset="1" stop-color="#a592ef"/>
    </linearGradient>
    <clipPath id="clip-legal">
      <rect width="50" height="50"/>
    </clipPath>
  </defs>
  <g id="legal" clip-path="url(#clip-legal)">
    <rect width="50" height="50" fill="#fff"/>
    <g id="law-office" transform="translate(0 0.7)">
      <g id="Group_251" data-name="Group 251" transform="translate(0 0.3)">
        <path id="Union_88" data-name="Union 88" d="M0,48.913V46.739H50v2.174Zm35.87-9.782,1.85-21.739h4.993l1.851,21.739Zm-15.216,0,1.581-18.59-3.758-3.7,0-1.625H1.087V11.588L25,0,48.915,11.588v3.629H31.521V16.84l-3.757,3.7,1.585,18.592Zm0-23.2L25,20.211l4.344-4.279h0V9.781H20.654ZM5.435,39.131,7.286,17.392H12.28l1.85,21.739Z" transform="translate(0 0)" fill="url(#linear-gradient)"/>
        <rect id="Rectangle_88" data-name="Rectangle 88" width="45.453" height="4.346" transform="translate(2.274 41.306)" fill="#fc0"/>
      </g>
    </g>
  </g>
</svg>
