<svg xmlns="http://www.w3.org/2000/svg" xmlns:xlink="http://www.w3.org/1999/xlink" width="50" height="50" viewBox="0 0 50 50">
  <defs>
    <linearGradient id="linear-gradient" x1="0.556" y1="1" x2="0.539" gradientUnits="objectBoundingBox">
      <stop offset="0" stop-color="#472dc2"/>
      <stop offset="1" stop-color="#a491ee"/>
      <stop offset="1" stop-color="#a592ef"/>
    </linearGradient>
    <clipPath id="clip-logistics">
      <rect width="50" height="50"/>
    </clipPath>
  </defs>
  <g id="logistics" clip-path="url(#clip-logistics)">
    <rect width="50" height="50" fill="#fff"/>
    <g id="commercial-delivery-symbol-of-a-list-on-clipboard-on-a-box-package" transform="translate(0.465 -17.154)">
      <path id="Path_98" data-name="Path 98" d="M46.863,28.079,41.587,21.46a2.627,2.627,0,0,0-2.054-.99H12.264a2.627,2.627,0,0,0-2.054.989L4.934,28.079a5.409,5.409,0,0,0-1,2.954v4.848A3.4,3.4,0,0,1,5.7,34.474,3.682,3.682,0,0,1,8.442,31.2a3.759,3.759,0,0,1,.966-.129,3.682,3.682,0,0,1,3.066,1.645,3.5,3.5,0,0,1,.6-.053,3.421,3.421,0,0,1,1.71.463l2.922-.76a4.439,4.439,0,0,1,5.417,3.181l5.727,22.013a4.442,4.442,0,0,1-3.181,5.418l-2.556.665H44.582a3.283,3.283,0,0,0,3.283-3.283V30.944A5.369,5.369,0,0,0,46.863,28.079ZM6.658,28.023l1.747-2.192H20.326L21.5,23.9H9.947l1.29-1.618a1.307,1.307,0,0,1,1.027-.495H39.533a1.306,1.306,0,0,1,1.027.495L41.85,23.9H30.089l.657,1.934H43.392l1.747,2.192Z" transform="translate(0.398 0)" fill="url(#linear-gradient)"/>
      <path id="Path_97" data-name="Path 97" d="M7.589,34.956l-.737.192A1.469,1.469,0,0,0,5.8,36.939l.007.029A1.469,1.469,0,0,0,7.6,38.019l6.25-1.626A1.469,1.469,0,0,0,14.9,34.6l-.007-.029A1.469,1.469,0,0,0,13.1,33.522l-.737.192a.737.737,0,0,1-.9-.528l-.006-.024a1.711,1.711,0,0,0-2.086-1.225l-.038.01A1.711,1.711,0,0,0,8.11,34.034l.006.024A.737.737,0,0,1,7.589,34.956ZM9.6,32.9a.742.742,0,1,1-.531.9A.742.742,0,0,1,9.6,32.9Zm9.211,22.64a.494.494,0,0,1-.354.6L9.367,58.508a.5.5,0,0,1-.6-.354l-.125-.478a.494.494,0,0,1,.354-.6l9.092-2.365a.5.5,0,0,1,.6.354Zm1.109-9.485.125.479a.494.494,0,0,1-.354.6L7.251,50.372a.5.5,0,0,1-.6-.354l-.125-.479a.494.494,0,0,1,.354-.6L19.32,45.7A.494.494,0,0,1,19.923,46.054Zm-1.35-3.225L6.131,46.065a.5.5,0,0,1-.6-.354L5.4,45.233a.494.494,0,0,1,.354-.6L18.2,41.393a.494.494,0,0,1,.6.354l.125.479A.494.494,0,0,1,18.573,42.829ZM18.3,51.586,8.247,54.2a.5.5,0,0,1-.6-.354l-.125-.479a.494.494,0,0,1,.354-.6l10.049-2.614a.494.494,0,0,1,.6.354l.125.479A.494.494,0,0,1,18.3,51.586ZM27.342,56.9,21.615,34.884a2.472,2.472,0,0,0-3.015-1.77l-2.918.759A2.479,2.479,0,0,1,14.1,37.351l-6.158,1.6A2.52,2.52,0,0,1,4.907,37.4a2.548,2.548,0,0,1-.135-.693l-2.921.76a2.472,2.472,0,0,0-1.77,3.015L5.807,62.5a2.472,2.472,0,0,0,3.015,1.77l16.749-4.357A2.472,2.472,0,0,0,27.342,56.9ZM8.2,61.877,3.22,42.735,19.97,38.378l4.98,19.142Z" transform="translate(0 1.154)" fill="#fc0"/>
    </g>
  </g>
</svg>
