<svg xmlns="http://www.w3.org/2000/svg" xmlns:xlink="http://www.w3.org/1999/xlink" width="50" height="50" viewBox="0 0 50 50">
  <defs>
    <linearGradient id="linear-gradient" x1="0.556" y1="1" x2="0.539" gradientUnits="objectBoundingBox">
      <stop offset="0" stop-color="#472dc2"/>
      <stop offset="1" stop-color="#a491ee"/>
      <stop offset="1" stop-color="#a592ef"/>
    </linearGradient>
    <clipPath id="clip-pharmaceutical">
      <rect width="50" height="50"/>
    </clipPath>
  </defs>
  <g id="pharmaceutical" clip-path="url(#clip-pharmaceutical)">
    <rect width="50" height="50" fill="#fff"/>
    <g id="noun_Medicine_586502" transform="translate(-5.001 -6.147)">
      <path id="Path_557" data-name="Path 557" d="M54.608,51.261c-1.614-2.336-5.134-.037-8.859,2.4-1.034.676-2.081,1.328-3.1,1.892a4.085,4.085,0,0,1,.978.528A3.667,3.667,0,0,1,45.1,58.915c.081,2.416-1.9,3.656-3.852,4.55-1.929.886-5.018.984-7.743,1.071-.561.018-1.11.035-1.633.058a16.926,16.926,0,0,0-4.663.868.759.759,0,0,1-.273.05.769.769,0,0,1-.276-1.487,17.94,17.94,0,0,1,5.142-.969c.531-.024,1.087-.041,1.655-.059,2.581-.081,5.5-.174,7.151-.93,2.168-1,3-1.864,2.954-3.1a2.12,2.12,0,0,0-.857-1.653,3.817,3.817,0,0,0-2.614-.562,8.4,8.4,0,0,1-1.591.432c-4.168.641-7.774.274-11.016-1.463-.252-.136-.568-.33-.944-.559-3.176-1.942-10.612-6.493-17.754.651h0s0,0,0,0L5.4,59.231A1.509,1.509,0,0,0,5.012,60.4l1.021,6.981.619,4.23c.107.739.478.96.691,1.028a.8.8,0,0,0,.239.036A1.27,1.27,0,0,0,8.5,72.2a24.077,24.077,0,0,1,2.275-2.071A6.943,6.943,0,0,1,14.889,68.3c1.862,0,4.3,1.069,6.883,2.2,3.076,1.349,6.563,2.876,9.781,2.876,10.093,0,18.545-9.128,21.763-15.263C54.945,55.011,55.429,52.448,54.608,51.261Z" transform="translate(0 -18.729)" fill="url(#linear-gradient)"/>
      <path id="Path_558" data-name="Path 558" d="M41.366,18.6a.626.626,0,0,0-.61.61v3.061a.61.61,0,0,0,1.221,0v-3.06A.612.612,0,0,0,41.366,18.6Z" transform="translate(-15.891 -4.645)" fill="#fc0"/>
      <path id="Path_559" data-name="Path 559" d="M42.026,32.062a5.607,5.607,0,0,0,3.992-1.648A5.51,5.51,0,0,0,47.645,26.5V13.715A5.628,5.628,0,0,0,38.036,9.8a5.511,5.511,0,0,0-1.628,3.919V26.495A5.6,5.6,0,0,0,42.026,32.062ZM37.619,13.715a4.306,4.306,0,0,1,1.273-3.063,4.419,4.419,0,0,1,7.543,3.063V19.5H37.619V13.715Z" transform="translate(-13.958)" fill="#fc0"/>
      <path id="Path_560" data-name="Path 560" d="M68.093,43.456a5.83,5.83,0,0,0,4.517-9.517l-8.2,8.2A5.8,5.8,0,0,0,68.093,43.456Z" transform="translate(-26.403 -11.463)" fill="#fc0"/>
      <path id="Path_561" data-name="Path 561" d="M70.065,31.385a5.829,5.829,0,0,0-8.2,8.2Z" transform="translate(-24.689 -9.743)" fill="#8f7be4"/>
    </g>
  </g>
</svg>
