<svg xmlns="http://www.w3.org/2000/svg" xmlns:xlink="http://www.w3.org/1999/xlink" width="50" height="50" viewBox="0 0 50 50">
  <defs>
    <linearGradient id="linear-gradient" x1="0.5" y1="1.122" x2="0.5" y2="-0.06" gradientUnits="objectBoundingBox">
      <stop offset="0" stop-color="#472dc2"/>
      <stop offset="1" stop-color="#a592ef"/>
    </linearGradient>
    <clipPath id="clip-sports">
      <rect width="50" height="50"/>
    </clipPath>
  </defs>
  <g id="sports" clip-path="url(#clip-sports)">
    <rect width="50" height="50" fill="#fff"/>
    <g id="swimming-figure" transform="translate(0 -156.145)">
      <g id="Group_95" data-name="Group 95" transform="translate(0.001 165.145)">
        <path id="Union_19" data-name="Union 19" d="M30.084,26.122A42.67,42.67,0,0,1,23.5,23.567a49.13,49.13,0,0,0-8.128-3.087,18.463,18.463,0,0,0-4.521-.553,19.587,19.587,0,0,0-3.528.319q5.03-2.487,10.056-4.967h.006C17,14.376,14.964,9.33,14.56,8.3L2.99,6.817A3.423,3.423,0,1,1,3.861.028L17.45,1.776a3.177,3.177,0,0,1,2.757,2.161c1.354,3.1,8.214,17.17,10.762,22.392C30.678,26.271,30.386,26.2,30.084,26.122ZM28.5,13.867a7.5,7.5,0,1,1,7.5,7.5A7.495,7.495,0,0,1,28.5,13.867Z" transform="translate(3.362 0)" fill="url(#linear-gradient)"/>
        <path id="Path_171" data-name="Path 171" d="M.886,579.876a2.107,2.107,0,0,0,1.238.4,1.579,1.579,0,0,0,.276-.021,2.126,2.126,0,0,0,1.45-.866,12.049,12.049,0,0,1,5.987-4.255,13.927,13.927,0,0,1,4.372-.712c5.3,0,9.838,3.166,14.619,4.988a22.614,22.614,0,0,0,8.138,1.7,17.4,17.4,0,0,0,3.8-.42,14.639,14.639,0,0,0,7.644-4.2,12.119,12.119,0,0,0,1.238-1.572,2.124,2.124,0,0,0-.6-2.943,2.1,2.1,0,0,0-1.169-.351,2.124,2.124,0,0,0-1.774.951,7.772,7.772,0,0,1-.542.722,10.21,10.21,0,0,1-5.711,3.246,14.978,14.978,0,0,1-6.81-.223,44,44,0,0,1-6.842-2.646,48.477,48.477,0,0,0-7.867-3,16.667,16.667,0,0,0-4.128-.5,18.221,18.221,0,0,0-5.721.93,17.235,17.235,0,0,0-4.473,2.247,15.255,15.255,0,0,0-3.618,3.559,2.1,2.1,0,0,0-.165.276A2.138,2.138,0,0,0,.886,579.876Z" transform="translate(-0.001 -548.654)" fill="#fc0"/>
      </g>
    </g>
  </g>
</svg>
